<svg xmlns="http://www.w3.org/2000/svg" viewBox="0 0 64 64">
  <defs>
    <linearGradient id="g" x1="0" y1="0" x2="1" y2="1">
      <stop offset="0" stop-color="#38bdf8"/>
      <stop offset="1" stop-color="#0ea5e9"/>
    </linearGradient>
    <filter id="s" x="-50%" y="-50%" width="200%" height="200%">
      <feGaussianBlur in="SourceAlpha" stdDeviation="2" result="b"/>
      <feOffset in="b" dx="0" dy="1" result="o"/>
      <feMerge>
        <feMergeNode in="o"/>
        <feMergeNode in="SourceGraphic"/>
      </feMerge>
    </filter>
  </defs>
  <rect width="64" height="64" rx="14" fill="url(#g)"/>
  <g filter="url(#s)">
    <path d="M18 20c0-3 2.5-5 6-5h9c9 0 13 4 13 11 0 5-3 9-8 10l7 8c.7.8.7 2 0 2.8-1 .9-2.6.8-3.5-.2l-9-10h-5v8c0 1.2-1 2.2-2.2 2.2S23 46.8 23 45.6V20zm6 2v10h9c4 0 6-2 6-5s-2-5-6-5h-9z" fill="#fff"/>
  </g>
</svg>
